<svg width="115" height="80" viewBox="0 0 115 80" fill="none" xmlns="http://www.w3.org/2000/svg">
<path d="M12.9787 26L0 54.9628H15.5373L17.4635 50.3449H21.8663L23.7925 54.9628H40.8947V51.4383L42.4186 54.9628H51.2652L52.7891 51.3638V54.9628H88.357L92.6819 50.4648L96.7316 54.9628L115 55L101.98 40.5622L115 26H97.0149L92.8049 30.4148L88.8827 26H50.1895L46.8669 33.4755L43.4663 26H27.9615V29.4046L26.2367 26C26.2367 26 12.9787 26 12.9787 26ZM15.9851 30.1127H23.5587L32.1674 49.7525V30.1127H40.464L47.1133 44.1944L53.2413 30.1127H61.4965V50.8954H56.4734L56.4324 34.6102L49.1093 50.8954H44.6159L37.2518 34.6102V50.8954H26.9182L24.9591 46.2362H14.3751L12.4201 50.8913H6.88349L15.9851 30.1127ZM66.0921 30.1127H86.5169L92.7639 36.9174L99.2122 30.1127H105.459L95.9676 40.5581L105.459 50.8832H98.9289L92.6819 43.9995L86.2007 50.8832H66.0921V30.1127ZM19.6694 33.6291L16.1824 41.9291H23.1523L19.6694 33.6291ZM71.1359 34.4158V38.2097H82.2785V42.4383H71.1359V46.5801H83.6339L89.4413 40.4796L83.8804 34.4122H71.1359V34.4158Z" fill="#26A6D1"/>
</svg>
