<svg width="115" height="80" viewBox="0 0 115 80" fill="none" xmlns="http://www.w3.org/2000/svg">
<path fill-rule="evenodd" clip-rule="evenodd" d="M57.5003 7H104.794C111.055 7 113 11.5934 113 14.8396V65.1829C113 68.3061 111.054 73.0219 104.794 73.0219H10.2068C4.00613 73.0219 2 68.3061 2 65.1829V14.8396C2 11.5934 4.00613 7 10.2068 7H57.5003Z" fill="white" stroke="#2D78BB" stroke-width="2" stroke-miterlimit="2.613"/>
<path fill-rule="evenodd" clip-rule="evenodd" d="M35.2519 45.2786H52.516L62.182 34.9277H79.5053L64.795 51.3408H10.3892V40.3786H39.5676L35.2519 45.2786Z" fill="#2D78BB"/>
<path fill-rule="evenodd" clip-rule="evenodd" d="M79.5053 34.929H62.1819L52.5159 45.3398H35.1301L49.8411 28.9268H104.308V39.8284H75.129L79.5053 34.929Z" fill="#F8E14B"/>
<path fill-rule="evenodd" clip-rule="evenodd" d="M97.3176 24.8835C96.5272 25.3731 95.4945 25.6186 94.5204 25.6186C91.7244 25.6186 89.2319 23.5364 89.2319 20.658C89.2319 17.779 91.4816 15.6968 94.3381 15.6968C95.3721 15.6968 96.5272 15.8804 97.3176 16.3707V19.4327C96.7101 18.8812 95.7979 18.6976 94.7646 18.6976C93.7918 18.6976 92.6367 19.4939 92.6367 20.7798C92.6367 21.8821 93.7918 22.5559 94.7646 22.5559C95.8578 22.5559 96.5272 22.4947 97.3176 21.8827V24.8835ZM104.429 22.5559V24.8835C101.937 26.7209 99.0803 25.1895 99.0803 23.0462V18.7595H97.8633V15.9416H99.0803V13.6759L102.484 11.8379V15.9416H104.429V18.514H102.667V22.4947C102.666 23.2298 103.882 23.1686 104.429 22.5559ZM79.8101 19.0043L80.3577 16.3707C83.7611 15.2072 88.6244 15.8804 88.6244 18.9431V25.435H85.4638L85.3421 25.1283C83.8835 26.047 78.5339 26.4761 79.2631 22.2499C79.6883 19.7387 82.5461 19.1267 84.3087 19.1267C85.221 19.1267 85.5856 18.2686 84.4305 18.208C83.3959 18.1462 81.3298 18.2686 79.8101 19.0043ZM22.4254 19.0043L22.9118 16.3707C26.3159 15.2072 31.1792 15.8804 31.1792 18.9431V25.435H27.9574L27.8968 25.1283C26.4988 26.047 20.9668 26.4761 21.8179 22.2499C22.2437 19.7387 25.0397 19.1267 26.8029 19.1267C27.7145 19.1267 28.0791 18.2686 26.9852 18.208C25.9512 18.1462 23.8234 18.2686 22.4254 19.0043ZM61.3916 20.7798C61.3916 23.6582 59.0195 25.6792 56.163 25.6792C53.3059 25.6792 50.8745 23.5358 50.8745 20.6574C50.8745 17.8402 53.3059 15.635 56.1025 15.635C59.0195 15.6356 61.3916 17.8402 61.3916 20.7798ZM78.655 22.5559V24.8835C76.1019 26.7209 73.3059 25.1895 73.3059 23.0462V18.7595H72.089V15.9416H73.3059V13.6759L76.77 11.8379V15.9416H78.655V18.514H76.8318V22.4947C76.8318 23.2298 78.1074 23.1686 78.655 22.5559Z" fill="#2D78BB"/>
<path fill-rule="evenodd" clip-rule="evenodd" d="M16.772 11.166C19.9326 11.166 22.2428 15.3922 19.3251 18.0251C22.9728 20.2915 21.3313 25.3126 17.2584 25.3745H10.4496V11.166H16.772ZM50.2662 24.8849C49.4757 25.3745 48.5641 25.6199 47.5301 25.6199C44.673 25.6199 42.2416 23.5378 42.2416 20.6594C42.2416 17.7803 44.4913 15.6982 47.2872 15.6982C48.3206 15.6982 49.475 15.8818 50.2662 16.372V19.434C49.5974 18.8826 48.807 18.699 47.7736 18.699C46.7403 18.699 45.5852 19.4953 45.5852 20.7811C45.5852 21.8834 46.8008 22.5573 47.7736 22.5573C48.807 22.5573 49.4757 22.4961 50.2662 21.8841V24.8849ZM41.5736 19.2498V25.4357H38.1695V20.1073C38.1695 18.2087 35.4341 18.2699 35.4341 20.1073V25.4357H32.03V15.943H35.4953V16.7392C38.3518 14.5952 41.5736 16.5556 41.5736 19.2498ZM71.6037 19.2498V25.4357H68.1989V20.1073C68.1989 18.2087 65.4635 18.2699 65.4635 20.1073V25.4357H62.0601V15.943H65.4635V16.7392C68.3812 14.5952 71.6037 16.5556 71.6037 19.2498ZM84.4303 18.2094C85.5854 18.2706 85.2207 19.128 84.3085 19.128C82.5459 19.128 79.6881 19.7401 79.2629 22.2513C78.533 26.4774 83.8833 26.0483 85.3418 25.1297L85.4636 25.4363H88.6242V18.9438C88.6242 15.8818 83.7609 15.2079 80.3574 16.3714L79.8098 19.005C81.3296 18.2699 83.3956 18.1475 84.4303 18.2094Z" fill="#2D78BB"/>
<path fill-rule="evenodd" clip-rule="evenodd" d="M26.9844 18.208C28.0783 18.2692 27.7136 19.1267 26.8021 19.1267C25.0388 19.1267 22.2429 19.7387 21.817 22.2499C20.966 26.4761 26.498 26.047 27.896 25.1283L27.9565 25.435H31.1783V18.9424C31.1783 15.8804 26.3157 15.2066 22.9109 16.37L22.4245 19.0036C23.8231 18.2686 25.951 18.1462 26.9844 18.208ZM56.1022 15.6356C53.3063 15.6356 50.8743 17.8408 50.8743 20.658C50.8743 23.5364 53.3056 25.6798 56.1628 25.6798C59.0193 25.6798 61.3914 23.6588 61.3914 20.7804C61.3914 17.8402 59.0193 15.6356 56.1022 15.6356ZM76.8316 22.4947V18.514H78.6548V15.9416H76.7698V11.8379L73.3057 13.6759V15.9416H72.0888V18.7595H73.3057V23.0462C73.3057 25.1895 76.1017 26.7209 78.6548 24.8835V22.5559C78.1072 23.1686 76.8316 23.2298 76.8316 22.4947Z" fill="#2D78BB"/>
<path fill-rule="evenodd" clip-rule="evenodd" d="M10.4496 11.166V25.3745H17.2578C21.3306 25.3133 22.9721 20.2915 19.3245 18.0251C22.2422 15.3915 19.932 11.166 16.7714 11.166H10.4496ZM50.2662 21.884C49.4757 22.4961 48.807 22.5573 47.7736 22.5573C46.8008 22.5573 45.5852 21.8841 45.5852 20.7811C45.5852 19.4946 46.7396 18.699 47.7736 18.699C48.807 18.699 49.5975 18.8826 50.2662 19.434V16.372C49.4757 15.8818 48.3206 15.6982 47.2872 15.6982C44.4913 15.6982 42.2416 17.7803 42.2416 20.6594C42.2416 23.5378 44.673 25.6199 47.5301 25.6199C48.5635 25.6199 49.4757 25.3751 50.2662 24.8849V21.884ZM35.4946 16.7392V15.943H32.0293V25.4357H35.4334V20.1073C35.4334 18.2699 38.1688 18.2087 38.1688 20.1073V25.4357H41.5729V19.2498C41.5736 16.5556 38.3518 14.5952 35.4946 16.7392ZM65.4629 16.7392V15.943H62.0594V25.4357H65.4629V20.1073C65.4629 18.2699 68.1983 18.2087 68.1983 20.1073V25.4357H71.603V19.2498C71.6037 16.5556 68.3812 14.5952 65.4629 16.7392ZM97.3174 21.884C96.527 22.4961 95.8576 22.5573 94.7643 22.5573C93.7916 22.5573 92.6365 21.8841 92.6365 20.7811C92.6365 19.4946 93.7916 18.699 94.7643 18.699C95.7977 18.699 96.7099 18.8826 97.3174 19.434V16.372C96.527 15.8818 95.3719 15.6982 94.3379 15.6982C91.4814 15.6982 89.2317 17.7803 89.2317 20.6594C89.2317 23.5378 91.7242 25.6199 94.5202 25.6199C95.4943 25.6199 96.527 25.3751 97.3174 24.8849V21.884ZM102.666 22.4961V18.5154H104.428V15.943H102.483V11.8392L99.08 13.6772V15.943H97.8631V18.7608H99.08V23.0475C99.08 25.1909 101.937 26.7222 104.429 24.8849V22.5573C103.881 23.1699 102.666 23.2311 102.666 22.4961ZM58.1084 20.7811C58.1084 21.8222 57.1961 22.6797 56.1628 22.6797C55.1294 22.6797 54.2784 21.8222 54.2784 20.6587C54.2784 19.434 55.1294 18.7602 56.1628 18.7602C57.1961 18.7602 58.1084 19.434 58.1084 20.7811Z" fill="#2D78BB"/>
<path fill-rule="evenodd" clip-rule="evenodd" d="M14.3401 19.6787H15.8598C17.7442 19.6787 17.9265 22.5571 15.9204 22.5571H14.3401V19.6787ZM27.7742 21.2713V22.4354C27.7742 23.7213 25.2211 24.0885 25.2211 22.7414C25.2211 21.5161 27.0449 21.1489 27.7742 21.2713ZM85.2201 21.2713V22.4354C85.2201 23.7213 82.7276 24.0885 82.7276 22.7414C82.7276 21.5161 84.5507 21.1489 85.2201 21.2713ZM15.8605 14.0443C17.6231 14.8406 17.0149 16.7391 15.921 16.7391H14.3407V14.0443C14.3401 13.9831 15.4346 13.9219 15.8605 14.0443Z" fill="#2D78BB"/>
<path fill-rule="evenodd" clip-rule="evenodd" d="M56.1628 18.7607C55.1294 18.7607 54.2784 19.4339 54.2784 20.6592C54.2784 21.8227 55.1294 22.6802 56.1628 22.6802C57.1961 22.6802 58.1084 21.8227 58.1084 20.7817C58.1084 19.4339 57.1961 18.7607 56.1628 18.7607ZM82.7276 22.7408C82.7276 24.0878 85.2201 23.7206 85.2201 22.4347V21.2706C84.5507 21.1489 82.7276 21.5161 82.7276 22.7408ZM14.3401 14.0443V16.7391H15.9204C17.0149 16.7391 17.6231 14.8406 15.8598 14.0443C15.4346 13.9219 14.3401 13.9831 14.3401 14.0443ZM25.2211 22.7408C25.2211 24.0878 27.7742 23.7206 27.7742 22.4347V21.2706C27.0449 21.1489 25.2211 21.5161 25.2211 22.7408ZM14.3401 22.5571H15.9204C17.9265 22.5571 17.7442 19.6787 15.8598 19.6787H14.3401V22.5571Z" fill="white"/>
<path fill-rule="evenodd" clip-rule="evenodd" d="M52.6981 64.1421C52.6981 60.8353 51.3601 58.6913 48.0165 58.6913C44.8559 58.6913 42.9709 61.0807 42.9709 63.7749C42.9709 66.7152 45.2206 68.8585 48.3811 68.8585C51.1165 68.8585 52.5152 67.7562 52.5152 67.7562V64.939C51.3601 65.5517 50.0838 65.9189 49.1716 65.9189C47.3478 65.9189 46.3757 65.428 46.3757 64.1421H52.6981ZM17.0149 64.633L19.8109 60.5898V68.6124H23.4585L23.5191 54.71H19.8109L17.0149 58.8749L14.1578 54.71H10.4496L10.5108 68.6124H14.1578V60.5898L17.0149 64.633ZM56.6492 63.0398C57.0138 62.2436 57.8036 61.5704 58.837 61.5704C59.3846 61.5704 59.9921 61.8145 60.4186 62.1212V59.1204C60.1138 58.7531 59.6281 58.6294 59.1417 58.6294C58.2913 58.6294 57.1356 59.1204 56.6492 59.733V58.7531H53.3668V68.6131H56.6492V63.0398ZM28.6864 68.0011C29.8415 68.4907 31.2395 68.6743 32.1511 68.6743C35.6769 68.6743 36.7103 66.8369 36.7103 65.3056C36.7103 63.5288 34.8865 62.5502 33.2456 62.3048C33.0021 62.3048 32.3334 62.1212 32.3334 61.8139C32.3334 61.5697 32.5164 61.2631 33.3062 61.2631C33.9749 61.2631 35.1906 61.5085 35.7987 61.8139L35.6776 59.2421C34.7654 58.9361 33.4891 58.6913 32.5164 58.6913C30.5102 58.6913 28.747 59.9166 28.747 61.8757C28.747 63.407 29.8415 64.2033 31.6041 64.5712C32.3334 64.633 33.0021 64.9384 33.0021 65.3062C33.0021 65.7959 32.5164 65.9189 32.0293 65.9189C31.6041 65.9189 30.5102 66.0407 28.6864 65.3062V68.0011Z" fill="#2D78BB"/>
<path fill-rule="evenodd" clip-rule="evenodd" d="M41.1487 65.6116V61.5704H43.033V58.9368H41.0269V54.71L37.5622 56.5486V58.9368H36.3466V61.754H37.5622V66.1644C37.5622 68.3689 40.4194 69.8384 43.0337 68.0017V65.6123C42.4854 66.1644 41.1487 66.2861 41.1487 65.6116ZM28.0785 68.4907V58.9368H24.4309V68.4907H28.0785ZM26.2547 58.6295C27.3493 58.6295 28.2609 57.7108 28.2609 56.6085C28.2609 55.5681 27.3486 54.71 26.2547 54.71C25.2214 54.71 24.3704 55.5681 24.3704 56.6085C24.371 57.7114 25.2214 58.6295 26.2547 58.6295ZM86.1931 68.0011C87.3482 68.4907 88.7462 68.6743 89.6584 68.6743C93.1843 68.6743 94.2776 66.8369 94.2776 65.3056C94.2776 63.5288 92.4544 62.5502 90.7517 62.3048C90.5088 62.3048 89.8395 62.1212 89.8395 61.8139C89.8395 61.5697 90.0218 61.2631 90.8735 61.2631C91.5415 61.2631 92.6966 61.5085 93.3647 61.8139L93.1837 59.2421C92.2714 58.9361 90.9946 58.6913 90.0218 58.6913C88.0163 58.6913 86.2531 59.9166 86.2531 61.8757C86.2531 63.4071 87.3476 64.2033 89.1109 64.5712C89.8395 64.633 90.5088 64.9384 90.5088 65.3063C90.5088 65.7959 90.0218 65.9189 89.536 65.9189C89.1109 65.9189 88.0163 66.0407 86.1931 65.3063V68.0011ZM75.4944 64.5712C74.3393 65.428 73.4271 65.6116 71.9074 65.6116C69.5984 65.6116 67.5311 63.7131 67.5311 61.754C67.5311 59.61 68.6862 57.589 71.9074 57.589C73.3672 57.589 74.5822 57.8345 75.4944 58.6913V55.3845C74.3393 54.71 72.759 54.5264 71.3611 54.5264C67.1658 54.5264 63.9447 57.5272 63.9447 61.6316C63.9447 65.6728 67.4706 68.7355 71.6039 68.7355C73.0019 68.7355 74.3393 68.4282 75.4944 67.7556V64.5712ZM81.3299 61.0808C82.485 61.1413 82.1203 62.06 81.2081 62.06C79.3849 62.06 76.4672 62.6726 76.1019 65.1845C75.3115 69.4712 80.7829 69.104 82.2408 68.1853L82.3626 68.4295H85.6455V61.8145C85.6455 58.6913 80.6605 58.0786 77.1346 59.2428L76.6489 61.8764C78.1693 61.1413 80.2972 61.0189 81.3299 61.0808ZM98.1681 59.6718V54.7106H94.7646V68.6131H98.1681V63.1623C98.1681 61.3249 100.964 61.2637 100.964 63.1623V68.6131H104.429V62.3054C104.429 59.4876 101.146 57.5272 98.1681 59.6718Z" fill="#2D78BB"/>
<path fill-rule="evenodd" clip-rule="evenodd" d="M46.2539 62.2426C46.4362 61.3239 47.1661 61.0186 47.8348 61.0186C48.5036 61.0186 49.3546 61.3246 49.3546 62.2426H46.2539ZM82.1201 64.203V65.3671C82.1201 66.7148 79.567 67.0202 79.567 65.6731C79.567 64.4484 81.4507 64.1411 82.1201 64.203Z" fill="white"/>
</svg>
